<?xml version="1.0" encoding="UTF-8"?>
<!-- Generator: Adobe Illustrator 27.1.0, SVG Export Plug-In . SVG Version: 6.00 Build 0)  -->
<svg xmlns="http://www.w3.org/2000/svg" xmlns:xlink="http://www.w3.org/1999/xlink" version="1.1" id="Capa_1" x="0px" y="0px" viewBox="0 0 637.8 210.87" style="enable-background:new 0 0 637.8 210.87;" xml:space="preserve">
<style type="text/css">
	.st0{fill-rule:evenodd;clip-rule:evenodd;fill:#010202;}
	.st1{fill-rule:evenodd;clip-rule:evenodd;fill:#FFFFFF;}
	.st2{fill-rule:evenodd;clip-rule:evenodd;fill:#003C70;}
	.st3{fill-rule:evenodd;clip-rule:evenodd;fill:#1DBADF;}
</style>
<g>
	<path class="st0" d="M153.16,151.64c0,2.44-0.87,4.48-2.63,6.13c-1.65,1.75-3.7,2.63-6.12,2.63h-8.76c-2.43,0-4.52-0.88-6.28-2.63   c-1.65-1.65-2.48-3.7-2.48-6.13V96.17H105v55.47c0,2.44-0.88,4.48-2.63,6.13c-1.65,1.75-3.7,2.63-6.13,2.63h-8.76   c-2.43,0-4.52-0.88-6.28-2.63c-1.65-1.65-2.48-3.7-2.48-6.13V96.17h-21.9v55.47c0,2.44-0.88,4.48-2.63,6.13   c-1.65,1.75-3.7,2.63-6.13,2.63H39.3c-2.43,0-4.47-0.88-6.13-2.63c-1.75-1.65-2.63-3.7-2.63-6.13V78.65c0-2.43,0.88-4.48,2.63-6.13   c1.66-1.76,3.7-2.63,6.13-2.63H132c5.84,0,10.8,2.09,14.89,6.27c4.18,4.09,6.27,9.05,6.27,14.89V151.64z"></path>
	<path class="st0" d="M265.56,151.64c0,2.44-0.88,4.48-2.62,6.13c-1.65,1.75-3.7,2.63-6.13,2.63h-76.64   c-5.84,0-10.85-2.04-15.03-6.13c-4.09-4.18-6.13-9.2-6.13-15.03V78.65c0-2.43,0.88-4.48,2.62-6.13c1.66-1.76,3.7-2.63,6.13-2.63   h8.76c2.43,0,4.48,0.87,6.13,2.63c1.75,1.65,2.62,3.7,2.62,6.13v55.47h54.01V78.65c0-2.43,0.83-4.48,2.48-6.13   c1.75-1.76,3.84-2.63,6.28-2.63h8.75c2.43,0,4.48,0.87,6.13,2.63c1.75,1.65,2.62,3.7,2.62,6.13V151.64z"></path>
	<path class="st0" d="M377.96,151.64c0,2.44-0.88,4.48-2.63,6.13c-1.65,1.75-3.7,2.63-6.13,2.63h-76.63   c-5.84,0-10.85-2.04-15.04-6.13c-4.08-4.18-6.13-9.2-6.13-15.03V91.06c0-5.84,2.05-10.8,6.13-14.89c4.19-4.18,9.2-6.27,15.04-6.27   h76.63c2.43,0,4.48,0.87,6.13,2.63c1.76,1.65,2.63,3.7,2.63,6.13v8.76c0,2.44-0.88,4.53-2.63,6.28c-1.65,1.66-3.7,2.48-6.13,2.48   h-71.52v37.96h71.52c2.43,0,4.48,0.87,6.13,2.62c1.76,1.65,2.63,3.7,2.63,6.13V151.64z"></path>
	<path class="st0" d="M490.36,139.24c0,5.84-2.09,10.85-6.28,15.03c-4.08,4.08-9.05,6.13-14.89,6.13h-64.23   c-5.84,0-10.85-2.04-15.03-6.13c-4.09-4.18-6.13-9.2-6.13-15.03V91.06c0-5.84,2.04-10.8,6.13-14.89c4.18-4.18,9.2-6.27,15.03-6.27   h64.23c5.84,0,10.8,2.09,14.89,6.27c4.19,4.09,6.28,9.05,6.28,14.89V139.24z M464.09,134.13V96.17h-54.01v37.96H464.09z"></path>
	<path class="st0" d="M602.76,103.47c0,2.43-0.88,4.53-2.63,6.28c-1.65,1.65-3.7,2.48-6.13,2.48h-8.75c-2.44,0-4.53-0.83-6.28-2.48   c-1.66-1.75-2.48-3.84-2.48-6.28v-7.3h-54.01v55.47c0,2.44-0.88,4.48-2.63,6.13c-1.66,1.75-3.7,2.63-6.13,2.63h-8.76   c-2.43,0-4.47-0.88-6.13-2.63c-1.75-1.65-2.63-3.7-2.63-6.13V78.65c0-2.43,0.88-4.48,2.63-6.13c1.66-1.76,3.7-2.63,6.13-2.63h76.64   c5.84,0,10.8,2.09,14.89,6.27c4.18,4.09,6.28,9.05,6.28,14.89V103.47z"></path>
	<path class="st0" d="M575.2,160.72l-21.38-17.94c-1.86-1.56-2.9-3.51-3.1-5.84c-0.21-2.47,0.46-4.63,2.02-6.5l5.63-6.71   c1.57-1.86,3.55-2.87,5.96-3.01c2.39-0.28,4.52,0.36,6.38,1.93l36.27,30.73l1.02,4.67l-2.56,2.66H575.2z"></path>
</g>
</svg>
